<?xml version="1.0" standalone="no"?>
<!DOCTYPE svg PUBLIC "-//W3C//DTD SVG 20010904//EN"
 "http://www.w3.org/TR/2001/REC-SVG-20010904/DTD/svg10.dtd">
<svg version="1.0" xmlns="http://www.w3.org/2000/svg"
 width="2054.000000pt" height="1363.000000pt" viewBox="0 0 2054.000000 1363.000000"
 preserveAspectRatio="xMidYMid meet">

<g transform="translate(0.000000,1363.000000) scale(0.100000,-0.100000)"
fill="#f8dfd4" stroke="none">
<path d="M9790 10790 c-269 -18 -608 -92 -915 -202 -802 -288 -1498 -864
-1958 -1623 -154 -253 -348 -675 -378 -822 -11 -56 -11 -64 4 -81 22 -24 22
-31 -7 -53 -17 -13 -25 -33 -30 -71 -4 -29 -22 -150 -41 -268 -38 -240 -57
-464 -53 -616 3 -92 15 -123 20 -49 1 17 4 -1 8 -40 l6 -70 9 55 10 55 5 -60
5 -60 14 103 c8 57 20 107 28 113 10 9 13 6 14 -17 0 -25 2 -26 9 -9 8 21 10
18 23 -25 2 -8 7 21 11 65 20 268 56 458 141 755 133 462 275 769 509 1104
178 253 448 541 688 733 453 363 991 620 1518 726 235 48 368 60 620 60 386 0
718 -54 1105 -180 1054 -343 1896 -1177 2246 -2224 135 -405 186 -751 176
-1187 -11 -479 -96 -894 -272 -1332 -175 -438 -394 -776 -707 -1096 -92 -94
-165 -173 -162 -177 3 -3 33 12 66 34 34 21 68 39 76 39 17 0 60 30 146 104
131 111 -46 -95 -201 -236 -156 -140 -270 -234 -493 -403 -214 -163 -295 -234
-282 -247 19 -19 286 134 492 280 233 165 495 408 741 684 57 65 108 118 112
118 23 0 -82 -119 -283 -320 -438 -438 -673 -615 -1090 -820 -345 -169 -709
-290 -1005 -335 -62 -9 -172 -15 -292 -15 -185 0 -193 -1 -193 -20 0 -21 45
-50 79 -50 41 0 29 -18 -19 -30 -30 -7 -50 -17 -50 -26 0 -17 83 -19 250 -4
931 84 1865 565 2503 1290 409 465 674 954 837 1545 78 285 100 493 100 951 0
544 -42 926 -140 1265 -109 379 -354 844 -638 1208 -550 706 -1389 1235 -2237
1410 -327 68 -752 95 -1125 71z m3977 -4432 c-3 -8 -6 -5 -6 6 -1 11 2 17 5
13 3 -3 4 -12 1 -19z m-10 -60 c-3 -7 -5 -2 -5 12 0 14 2 19 5 13 2 -7 2 -19
0 -25z m-31 -171 c-24 -120 -61 -268 -52 -207 10 71 71 360 74 351 2 -6 -8
-71 -22 -144z m-59 -259 c-3 -8 -6 -5 -6 6 -1 11 2 17 5 13 3 -3 4 -12 1 -19z
m-26 -79 c-5 -13 -10 -19 -10 -12 -1 15 10 45 15 40 3 -2 0 -15 -5 -28z m-87
-255 c-22 -68 -103 -238 -109 -232 -3 3 6 36 20 74 30 80 96 216 102 211 2 -3
-4 -26 -13 -53z m-204 -419 c-18 -46 -51 -107 -97 -173 -54 -81 -58 -84 -48
-52 4 14 23 43 43 64 19 22 50 72 69 113 32 70 53 100 33 48z"/>
<path d="M11620 9541 c-431 -92 -891 -343 -1385 -756 -146 -121 -496 -464
-650 -635 -398 -443 -781 -961 -1025 -1385 -353 -615 -516 -1150 -497 -1630
11 -278 84 -445 281 -641 179 -178 333 -253 578 -284 147 -19 501 -8 653 19
535 95 1079 322 1600 666 307 204 630 485 654 570 13 47 8 55 -31 55 -46 0
-151 -60 -289 -165 -297 -227 -462 -330 -774 -485 -415 -206 -851 -363 -1206
-434 -595 -121 -1055 39 -1240 429 -21 44 -45 115 -54 157 -50 250 28 644 211
1057 424 963 1496 2215 2419 2826 337 224 727 399 918 412 99 6 185 -18 230
-67 32 -35 34 -74 16 -241 -14 -127 -6 -154 41 -138 40 15 96 81 114 138 72
224 17 422 -137 495 -117 55 -276 69 -427 37z"/>
<path d="M6886 4968 c76 -147 414 -595 414 -549 0 7 5 9 10 6 27 -17 4 32 -53
111 -35 49 -101 143 -147 209 -107 156 -182 248 -190 235 -4 -7 -11 -6 -20 5
-22 27 -31 16 -14 -17z"/>
<path d="M7340 4383 c0 -17 141 -173 218 -241 55 -49 75 -61 88 -54 14 8 6 21
-53 88 -94 106 -235 230 -207 182 4 -7 -5 -2 -19 11 -15 14 -27 20 -27 14z"/>
<path d="M8350 3702 c0 -16 44 -44 145 -94 151 -75 221 -101 240 -91 14 8 9
15 -32 41 -143 92 -353 177 -353 144z"/>
<path d="M5500 2120 c-41 -4 -101 -15 -132 -25 -64 -18 -72 -34 -37 -71 19
-20 22 -38 26 -156 3 -73 -2 -283 -11 -467 -9 -183 -13 -337 -10 -342 3 -5 66
-9 140 -9 112 0 134 2 134 15 0 8 7 15 15 15 19 0 20 71 4 277 -6 79 -10 146
-8 148 2 2 56 11 119 20 138 20 210 46 263 94 56 50 77 101 77 187 0 95 -23
158 -77 210 -87 85 -289 127 -503 104z m267 -131 c69 -43 103 -180 64 -258
-27 -51 -79 -110 -119 -133 -28 -17 -30 -17 -47 1 -27 30 -35 85 -35 243 0
123 3 149 17 163 20 20 72 13 120 -16z"/>
<path d="M6356 2121 c-4 -6 -18 -11 -32 -11 l-24 0 2 -527 3 -528 135 0 c103
0 134 3 133 13 -2 6 4 12 12 12 14 0 15 25 10 213 l-6 212 41 -45 c22 -25 73
-92 112 -150 151 -221 270 -305 404 -285 45 6 94 42 94 69 0 6 -20 24 -45 39
-47 30 -134 131 -214 251 -98 145 -103 174 -38 200 23 10 49 21 56 25 72 36
88 219 31 332 -40 78 -135 134 -280 165 -90 19 -385 31 -394 15z m367 -162
c81 -61 102 -95 93 -156 -7 -54 -49 -139 -76 -153 -11 -6 -42 -14 -68 -17 -78
-9 -82 0 -82 177 0 82 4 160 10 174 14 39 46 33 123 -25z"/>
<path d="M14776 2120 c-70 -9 -109 -39 -88 -68 34 -48 36 -67 36 -372 0 -285
-13 -489 -33 -543 -7 -18 -3 -29 20 -52 29 -28 30 -29 152 -29 l122 -1 -1 55
c0 30 -3 111 -7 180 -7 121 1 192 21 212 15 15 80 -52 162 -167 90 -128 208
-248 277 -282 69 -33 179 -44 189 -18 10 26 -17 72 -102 170 -100 116 -194
259 -194 295 0 21 18 48 69 104 79 86 106 145 98 206 -11 81 -78 179 -147 215
-129 66 -420 114 -574 95z m331 -124 c28 -14 59 -35 67 -48 39 -60 38 -193 -2
-248 -41 -56 -171 -93 -187 -52 -13 33 -17 198 -7 266 11 69 32 106 61 106 9
0 39 -11 68 -24z"/>
<path d="M15852 2121 c-76 -13 -75 -24 10 -104 95 -90 93 -81 92 -447 -1 -286
-14 -401 -49 -440 -18 -20 -20 -40 -4 -40 7 0 18 -8 25 -17 10 -15 28 -18 98
-18 102 0 117 9 97 58 -7 17 -17 48 -23 67 -13 45 -23 539 -12 550 5 5 84 -92
179 -217 178 -236 299 -383 350 -425 35 -29 90 -35 99 -11 14 36 25 226 30
509 3 166 11 345 17 399 8 66 8 100 1 107 -6 6 -32 15 -59 20 -118 25 -127 15
-131 -145 -2 -67 1 -203 6 -302 5 -99 9 -181 8 -182 -1 -1 -45 55 -97 125
-211 284 -351 447 -409 477 -24 12 -161 46 -177 44 -4 -1 -27 -5 -51 -8z"/>
<path d="M17130 2120 c-125 -9 -170 -21 -170 -45 0 -8 11 -21 25 -27 45 -20
50 -63 50 -428 0 -340 -9 -448 -40 -497 -13 -19 -12 -22 11 -27 14 -4 22 -11
19 -16 -8 -12 36 -18 193 -25 l132 -5 0 40 c0 23 -5 118 -11 212 -11 189 -8
233 21 248 31 16 94 -4 168 -53 79 -52 129 -59 138 -20 4 13 5 64 2 112 -5
100 -25 148 -56 133 -20 -11 -43 -4 -59 17 -16 22 -42 5 -67 -42 -21 -41 -73
-70 -114 -65 -36 4 -39 23 -41 246 l-1 182 73 0 c90 0 142 -14 187 -49 55 -44
99 -64 114 -52 9 7 16 7 24 -1 18 -18 24 -4 25 52 1 32 -5 56 -14 65 -39 39
-364 63 -609 45z"/>
<path d="M17980 2038 c1 -51 5 -222 9 -380 11 -340 3 -477 -28 -519 -23 -31
-21 -49 6 -49 9 0 21 -7 27 -15 14 -19 140 -30 238 -21 97 9 107 16 80 51 -12
15 -27 46 -33 68 -16 62 -13 210 7 269 l17 51 18 -24 c11 -13 52 -71 91 -129
93 -135 155 -200 242 -255 105 -64 192 -81 276 -52 50 17 47 37 -8 73 -54 36
-123 117 -245 291 l-86 122 82 68 c104 88 127 121 127 186 0 66 -28 123 -96
197 -65 69 -98 86 -218 111 -80 16 -396 49 -477 49 l-29 0 0 -92z m429 -68
c70 -55 85 -88 72 -151 -22 -101 -75 -170 -133 -172 l-33 -2 0 160 c0 155 8
205 34 205 5 0 32 -18 60 -40z"/>
<path d="M2738 2100 c-105 -22 -172 -52 -256 -114 -122 -91 -190 -216 -199
-368 -7 -104 7 -185 49 -286 59 -142 144 -228 269 -271 54 -18 219 -47 289
-50 l35 -1 -50 25 -50 25 40 -5 c22 -3 54 -8 70 -11 23 -4 26 -3 15 5 -12 8
-7 11 22 11 20 0 65 6 100 14 35 8 89 17 120 21 31 3 62 13 69 21 6 8 17 14
25 14 25 0 44 43 44 101 0 32 -3 64 -6 73 -8 20 -43 21 -72 1 -12 -9 -27 -15
-34 -14 -7 1 -21 1 -30 0 -19 -1 -136 -94 -216 -171 -58 -55 -61 -56 -135 -18
-53 26 -119 89 -158 149 -102 160 -115 433 -29 616 57 123 128 183 217 183 69
0 101 -17 188 -99 131 -123 131 -123 179 -127 37 -3 46 -1 46 12 0 11 5 14 17
10 24 -9 33 11 33 76 0 79 -26 108 -128 142 -176 59 -306 69 -464 36z"/>
<path d="M3758 2105 c-97 -21 -144 -44 -187 -90 -53 -58 -73 -107 -74 -181 -2
-136 105 -274 304 -391 108 -63 183 -132 195 -177 9 -37 -12 -88 -56 -136
l-39 -42 -42 24 c-23 12 -92 76 -153 141 -61 64 -114 117 -118 117 -5 0 -8
-14 -8 -32 0 -30 0 -31 -20 -13 -19 17 -20 17 -20 0 0 -16 -3 -16 -26 6 l-26
24 5 -105 c5 -123 10 -138 46 -146 14 -3 70 -21 124 -40 113 -39 190 -44 278
-18 237 71 339 244 254 432 -37 81 -112 152 -231 215 -159 85 -204 137 -204
242 0 153 71 151 233 -4 59 -57 87 -78 87 -66 0 17 1 17 18 2 26 -23 30 -21
24 11 -5 26 -4 26 15 10 11 -10 23 -18 28 -18 11 0 0 141 -14 171 -16 32 -42
48 -106 65 -61 17 -210 16 -287 -1z"/>
<path d="M4695 2116 c-5 -3 -35 -11 -65 -20 -132 -37 -200 -120 -208 -256 -3
-53 1 -94 12 -133 20 -69 71 -117 265 -250 74 -50 157 -113 185 -138 l51 -47
-24 -47 c-14 -25 -41 -65 -61 -88 -36 -40 -38 -41 -66 -28 -54 24 -137 96
-201 173 -67 81 -99 102 -115 74 -5 -10 -22 -16 -42 -16 -40 0 -46 -11 -46
-89 0 -76 27 -117 100 -154 147 -73 382 -75 490 -3 50 33 107 92 127 129 25
48 30 182 8 247 -23 68 -93 137 -216 212 -219 132 -259 161 -259 183 0 36 50
149 76 172 23 21 27 22 60 8 48 -20 61 -30 155 -119 46 -44 85 -74 87 -67 3 9
10 7 23 -5 18 -16 19 -16 19 11 0 23 2 26 15 15 13 -11 15 -2 15 68 0 101 -16
124 -105 148 -56 14 -258 29 -280 20z"/>
<path d="M7530 2114 c-97 -18 -138 -58 -86 -82 45 -20 51 -68 51 -412 0 -328
-11 -458 -43 -512 -11 -19 -13 -31 -6 -38 28 -28 302 -20 296 8 -1 7 4 15 12
18 12 4 10 12 -9 39 -14 22 -25 56 -29 97 -6 61 7 247 20 281 7 20 63 37 120
37 48 0 85 -25 103 -68 7 -16 24 -35 39 -42 24 -11 29 -9 49 17 29 35 37 78
30 159 -5 67 -27 114 -53 114 -8 0 -37 -22 -63 -50 -46 -48 -51 -50 -101 -50
-46 0 -56 4 -85 33 -54 54 -68 146 -44 285 16 88 39 112 112 112 73 0 142 -22
216 -70 69 -45 79 -47 96 -23 17 23 -1 90 -29 108 -11 8 -50 19 -86 25 -68 11
-467 22 -510 14z"/>
<path d="M8611 2095 c-82 -38 -126 -78 -151 -137 -46 -107 -35 -258 23 -325
35 -40 138 -119 277 -214 52 -35 114 -82 138 -105 47 -46 47 -51 2 -119 -46
-68 -79 -95 -115 -95 -47 0 -143 67 -218 153 -76 86 -107 117 -119 117 -5 0
-20 -12 -33 -26 -20 -22 -25 -37 -25 -83 0 -68 23 -118 69 -148 53 -35 157
-64 252 -70 174 -11 299 58 349 192 28 77 25 198 -8 261 -31 60 -119 136 -246
211 -117 69 -226 141 -226 148 0 11 49 134 61 154 8 11 29 28 47 37 60 28 117
-1 250 -130 66 -65 85 -78 92 -66 13 20 13 152 0 184 -12 33 -55 54 -147 72
-117 22 -208 19 -272 -11z"/>
<path d="M9515 2102 c-49 -23 -101 -80 -129 -141 -16 -36 -20 -66 -20 -136 0
-78 3 -98 28 -153 37 -80 114 -153 243 -228 110 -65 168 -120 184 -174 15 -50
5 -86 -36 -127 -30 -30 -38 -33 -91 -33 -48 0 -70 7 -119 33 -62 35 -92 69
-148 167 -38 66 -64 75 -89 29 -27 -46 -25 -168 2 -202 38 -48 276 -114 374
-104 105 11 206 82 249 176 17 35 22 65 22 131 0 155 -60 239 -250 349 -229
132 -261 185 -186 302 62 98 126 87 271 -47 51 -47 100 -84 108 -82 41 8 41
154 1 193 -34 34 -126 56 -259 61 -98 4 -121 2 -155 -14z"/>
<path d="M10632 2100 c-251 -66 -384 -245 -383 -520 0 -301 146 -500 396 -540
131 -21 309 9 428 72 67 36 154 119 190 181 77 131 93 303 43 452 -46 134
-141 256 -251 320 -96 57 -282 72 -423 35z m265 -75 c134 -67 207 -219 206
-430 -1 -282 -137 -485 -326 -485 -126 0 -230 94 -288 260 -30 86 -32 280 -5
380 36 131 116 242 201 281 60 28 149 25 212 -6z"/>
<path d="M12549 2098 c-97 -34 -175 -84 -255 -163 -99 -98 -118 -148 -117
-310 2 -251 97 -446 261 -533 66 -35 110 -48 230 -67 107 -18 124 -18 94 -2
-12 7 -20 16 -17 19 3 3 -31 21 -74 41 -44 20 -100 54 -124 76 -91 84 -147
241 -147 409 0 160 52 302 145 397 67 68 114 90 190 89 83 0 142 -33 261 -145
78 -73 101 -90 122 -87 26 3 27 6 30 72 4 84 -8 105 -80 140 -99 47 -224 78
-343 82 -96 4 -118 2 -176 -18z"/>
<path d="M13766 2104 c-255 -62 -415 -262 -416 -519 0 -197 118 -405 277 -487
89 -46 157 -62 273 -62 182 0 378 68 457 158 92 104 130 376 80 561 -48 174
-192 303 -389 350 -78 18 -204 18 -282 -1z m257 -68 c70 -29 134 -132 163
-265 20 -89 15 -309 -9 -382 -39 -120 -118 -226 -192 -260 -48 -22 -133 -24
-178 -5 -43 18 -104 81 -132 136 -45 91 -62 228 -45 377 25 225 94 376 184
402 48 14 173 13 209 -3z"/>
<path d="M13009 1270 c-68 -44 -207 -179 -187 -180 11 0 15 -5 12 -15 -7 -18
32 -20 85 -5 19 5 70 14 115 21 103 14 116 25 116 100 0 51 -4 62 -27 84 -36
33 -60 32 -114 -5z"/>
<path d="M8121 1179 c-17 -17 -31 -35 -31 -39 0 -5 -31 -19 -69 -30 -68 -21
-136 -65 -125 -81 15 -26 183 -1 236 34 63 43 100 126 62 141 -28 11 -42 6
-73 -25z"/>
<path d="M17636 1194 c-9 -8 -16 -22 -16 -29 0 -18 -43 -47 -103 -69 -50 -19
-57 -37 -18 -46 12 -3 22 -9 22 -15 -1 -16 136 -9 184 10 51 19 95 66 95 100
0 25 -17 35 -60 35 -15 0 -33 7 -40 15 -16 19 -44 19 -64 -1z"/>
</g>
</svg>
