<?xml version="1.0" standalone="no"?>
<!DOCTYPE svg PUBLIC "-//W3C//DTD SVG 20010904//EN"
 "http://www.w3.org/TR/2001/REC-SVG-20010904/DTD/svg10.dtd">
<svg version="1.0" xmlns="http://www.w3.org/2000/svg"
 width="2054.000000pt" height="1363.000000pt" viewBox="0 0 2054.000000 1363.000000"
 preserveAspectRatio="xMidYMid meet">

<g transform="translate(0.000000,1363.000000) scale(0.100000,-0.100000)"
fill="#000000" stroke="none">
<path d="M9745 10920 c-412 -41 -709 -113 -1085 -262 -656 -260 -1275 -755
-1696 -1355 -225 -319 -474 -812 -541 -1065 -17 -67 -17 -67 5 -97 26 -35 27
-41 9 -41 -26 0 -45 -35 -51 -95 -4 -33 -20 -139 -36 -235 -16 -96 -34 -227
-40 -290 -11 -127 -18 -460 -9 -455 3 2 14 65 24 140 12 83 23 134 29 132 12
-4 27 -227 19 -267 -3 -14 -2 -22 2 -18 5 5 13 41 20 80 l11 73 7 -91 c4 -50
5 -100 1 -110 -5 -16 -4 -16 5 -4 6 8 12 29 13 45 1 17 4 -1 8 -40 l6 -70 9
55 10 55 5 -60 5 -60 14 103 c8 57 20 107 28 113 10 9 13 6 14 -17 0 -25 2
-26 9 -9 8 21 10 18 23 -25 2 -8 7 21 11 65 20 268 56 458 141 755 133 462
275 769 509 1104 178 253 448 541 688 733 453 363 991 620 1518 726 235 48
368 60 620 60 303 0 553 -31 845 -104 871 -219 1611 -738 2100 -1474 328 -493
522 -1044 576 -1638 14 -159 6 -577 -15 -732 -80 -598 -261 -1101 -561 -1555
-117 -177 -226 -311 -410 -500 -88 -91 -149 -156 -135 -144 46 39 55 37 17 -3
-20 -21 -35 -42 -31 -45 3 -4 33 11 66 33 34 21 69 39 78 39 9 0 45 23 80 51
52 43 59 46 41 21 -53 -75 -368 -347 -655 -566 -185 -141 -309 -243 -314 -257
-2 -5 1 -9 8 -9 6 0 9 -4 5 -9 -14 -24 21 -18 85 14 38 19 70 33 70 30 0 -12
-350 -177 -494 -234 -276 -109 -508 -173 -743 -207 -82 -12 -147 -14 -269 -9
-114 5 -164 4 -168 -4 -4 -6 -18 -11 -32 -11 -26 0 -32 -14 -12 -27 7 -4 39
-17 72 -28 l59 -21 -67 -19 c-36 -10 -66 -23 -66 -27 0 -5 11 -6 24 -2 13 3
27 1 30 -5 23 -37 508 18 791 89 486 122 990 365 1400 674 599 450 1084 1107
1340 1812 99 271 165 561 184 803 14 170 14 759 1 951 -28 399 -98 742 -212
1037 -118 306 -370 733 -612 1037 -113 143 -427 453 -586 580 -257 205 -601
418 -880 546 -424 194 -807 292 -1305 334 -125 11 -524 14 -610 6z m3795
-5421 c-25 -66 -64 -137 -54 -99 10 36 66 161 71 157 2 -3 -6 -29 -17 -58z
m-550 -944 c-24 -25 -46 -45 -49 -45 -3 0 15 20 39 45 24 25 46 45 49 45 3 0
-15 -20 -39 -45z m-760 -700 c0 -2 -20 -18 -45 -35 -25 -17 -45 -29 -45 -26 0
4 80 64 88 66 1 0 2 -2 2 -5z m-119 -84 c-31 -23 -90 -57 -76 -44 13 14 88 63
95 63 3 0 -6 -9 -19 -19z m-96 -60 c-16 -14 -105 -63 -105 -58 0 5 101 66 110
67 2 0 0 -4 -5 -9z"/>
<path d="M11570 9645 c-751 -171 -1574 -794 -2405 -1825 -703 -871 -1108
-1674 -1185 -2349 -17 -141 -8 -434 15 -521 42 -158 121 -284 261 -421 107
-103 184 -156 312 -216 205 -95 345 -118 669 -110 240 5 353 21 593 82 641
162 1331 533 1827 982 119 107 162 163 180 230 17 67 11 75 -57 66 -87 -11
-178 -64 -380 -223 -203 -159 -404 -283 -687 -424 -426 -212 -863 -373 -1214
-447 -176 -37 -397 -49 -541 -29 -177 24 -351 89 -469 176 -120 88 -223 253
-254 406 -50 251 29 644 211 1057 347 788 1137 1789 1949 2471 341 286 631
477 952 625 289 133 455 169 577 126 94 -33 97 -37 96 -160 -2 -281 -1 -287
50 -269 41 14 96 80 114 137 50 155 57 335 17 427 -44 99 -96 142 -230 192
-56 21 -87 25 -201 28 -93 2 -155 -1 -200 -11z"/>
<path d="M6760 5035 c0 -36 324 -501 389 -559 41 -37 23 9 -36 90 -31 44 -97
138 -147 209 -90 130 -193 265 -201 265 -3 0 -5 -2 -5 -5z"/>
<path d="M6851 5003 c156 -259 430 -613 451 -581 6 10 8 9 8 -4 0 -21 147
-185 243 -271 60 -53 80 -66 93 -59 14 8 6 21 -53 88 -73 82 -194 194 -211
194 -18 0 -62 42 -62 60 0 10 -29 58 -63 106 -35 49 -101 143 -147 209 -106
154 -182 248 -190 235 -3 -5 -21 5 -40 25 -44 46 -57 45 -29 -2z"/>
<path d="M7244 4388 c24 -34 257 -268 268 -268 20 0 -22 51 -139 167 -116 115
-165 153 -129 101z"/>
<path d="M8335 3719 c6 -18 5 -19 -13 -10 -26 14 -65 14 -57 1 14 -23 362
-186 373 -176 2 3 21 -2 43 -10 25 -11 43 -13 54 -6 14 7 5 16 -50 51 -78 50
-321 171 -342 171 -10 0 -12 -6 -8 -21z"/>
<path d="M5450 2119 c-157 -11 -280 -43 -280 -74 0 -8 10 -25 23 -37 21 -22
22 -32 25 -203 1 -99 -4 -313 -11 -475 -8 -162 -12 -298 -10 -302 2 -5 58 -8
124 -8 99 0 119 3 119 15 0 12 16 15 85 15 69 0 85 3 85 15 0 8 7 15 15 15 19
0 20 71 4 277 -6 79 -10 146 -8 148 2 2 56 11 119 20 138 20 210 46 263 94 56
50 77 101 77 187 1 249 -191 344 -630 313z m213 -167 c30 -33 57 -106 57 -157
0 -37 -8 -63 -30 -102 -17 -29 -34 -53 -39 -53 -5 0 -11 14 -15 31 -9 47 -7
299 2 299 5 0 16 -8 25 -18z"/>
<path d="M6315 2123 c-30 -2 -53 -10 -58 -19 -6 -10 -20 -14 -40 -12 l-32 3 0
-535 0 -535 123 -3 c103 -2 122 0 122 12 0 12 16 16 73 18 51 2 71 7 70 16 -2
6 4 12 13 12 15 0 16 13 10 132 l-7 133 66 -97 c136 -199 271 -284 392 -245
26 8 70 18 97 22 47 6 96 42 96 69 0 6 -20 24 -45 39 -47 30 -134 131 -214
251 -98 145 -103 174 -38 200 23 10 49 21 56 25 72 36 88 219 31 332 -40 78
-135 134 -280 165 -67 14 -347 25 -435 17z m326 -204 c42 -33 69 -75 69 -107
0 -37 -33 -121 -59 -153 -25 -30 -28 -31 -44 -15 -14 15 -17 39 -17 162 0 79
3 144 6 144 3 0 24 -14 45 -31z"/>
<path d="M14776 2120 c-70 -9 -109 -39 -88 -68 34 -48 36 -67 36 -372 0 -287
-13 -489 -34 -544 -7 -20 -2 -29 36 -62 49 -43 83 -52 200 -53 106 -1 107 -1
98 242 -4 117 -3 200 3 210 8 16 12 14 35 -10 14 -16 58 -73 97 -128 145 -203
304 -328 435 -342 48 -5 53 -4 70 22 24 36 15 63 -39 127 -102 120 -197 247
-226 302 -37 69 -36 72 50 169 80 89 95 119 95 188 -1 99 -84 213 -182 249
-73 28 -223 57 -332 65 -177 12 -196 12 -254 5z m359 -138 c41 -24 67 -81 68
-150 0 -74 -17 -125 -54 -156 -33 -28 -105 -54 -117 -42 -4 4 -7 83 -7 175 0
131 3 172 14 185 16 20 47 15 96 -12z"/>
<path d="M15852 2120 c-77 -11 -75 -23 10 -103 95 -90 93 -81 92 -447 -1 -286
-14 -401 -49 -440 -19 -21 -19 -40 -1 -40 8 0 16 -7 20 -15 3 -8 14 -15 25
-15 11 0 26 -6 33 -13 19 -19 81 -29 131 -22 35 5 45 12 56 36 11 26 11 37 -3
72 -22 61 -38 241 -34 407 l3 145 154 -204 c230 -305 343 -430 375 -418 7 3
28 -3 45 -14 39 -24 38 -24 52 3 25 47 30 104 39 463 5 204 15 419 21 478 6
59 9 111 5 115 -4 3 -44 8 -89 9 -45 2 -93 3 -106 4 -13 0 -31 -6 -40 -15 -14
-15 -16 -48 -14 -277 l2 -259 -126 165 c-262 346 -303 380 -468 387 -49 2
-109 1 -133 -2z"/>
<path d="M17130 2120 c-124 -9 -170 -21 -170 -45 0 -8 11 -21 25 -27 45 -20
50 -63 50 -428 0 -340 -9 -448 -40 -497 -13 -19 -12 -22 11 -27 14 -4 22 -10
20 -15 -7 -10 27 -21 66 -21 14 0 28 -6 30 -12 5 -15 267 -29 283 -16 6 6 8
64 5 156 -3 81 -5 190 -5 242 0 94 0 95 27 104 23 8 36 3 95 -36 52 -35 76
-45 103 -44 19 1 45 -4 58 -12 17 -11 26 -12 34 -4 17 17 22 160 8 225 -13 62
-30 78 -62 58 -13 -8 -23 -9 -32 -2 -7 6 -18 6 -25 1 -17 -10 -42 -2 -58 19
-16 21 -42 5 -67 -42 -19 -36 -60 -66 -73 -53 -5 4 -9 98 -11 208 l-3 200 75
-4 c65 -3 79 -7 113 -34 57 -46 102 -67 117 -55 9 7 16 7 25 -2 11 -9 14 -9
18 0 3 9 11 8 29 -4 35 -22 46 -7 46 62 1 72 -11 84 -93 95 -96 13 -469 19
-599 10z"/>
<path d="M17980 2038 c1 -51 5 -222 9 -380 11 -340 3 -477 -28 -519 -24 -32
-20 -49 9 -49 10 0 20 -7 24 -15 3 -9 18 -15 38 -15 18 0 47 -7 63 -16 22 -12
60 -17 140 -18 139 -1 162 5 163 41 0 16 -7 36 -15 45 -28 31 -42 92 -42 178
1 47 4 96 8 110 6 23 12 17 71 -70 35 -52 86 -119 114 -148 69 -73 178 -139
257 -156 35 -7 84 -19 108 -25 116 -32 208 39 121 94 -57 36 -158 152 -254
290 l-87 127 23 16 c61 43 143 121 159 152 28 51 25 138 -5 199 -37 72 -117
155 -174 179 -75 33 -251 53 -569 67 l-133 6 0 -93z m462 -95 c44 -48 51 -69
39 -124 -13 -59 -41 -117 -69 -142 -20 -19 -21 -18 -28 19 -8 41 1 229 11 257
10 23 17 22 47 -10z"/>
<path d="M2665 2108 c-256 -30 -441 -149 -532 -343 -27 -57 -28 -67 -28 -210
0 -147 1 -152 33 -229 66 -159 157 -253 287 -296 49 -16 232 -51 262 -50 5 0
-26 16 -67 35 -41 19 -73 35 -70 35 3 0 41 -7 85 -15 44 -9 127 -18 185 -20
l105 -4 -40 19 -40 20 60 -4 c39 -3 55 -2 45 4 -11 7 -5 10 22 10 20 0 65 6
100 14 35 8 89 17 120 21 31 3 62 13 69 21 6 8 18 14 25 14 8 0 19 9 26 20 12
18 13 16 23 -21 l10 -41 100 -34 c152 -53 157 -54 201 -54 22 0 63 7 90 15 27
8 72 15 100 15 140 0 312 98 365 208 17 34 23 64 23 112 0 138 -85 250 -260
343 -157 83 -204 138 -204 237 0 27 3 50 8 50 4 0 39 -31 77 -70 38 -38 72
-70 75 -70 3 0 3 22 2 50 -2 27 0 50 4 50 5 0 28 -19 51 -42 40 -40 43 -41 43
-18 l0 24 30 -29 c25 -24 30 -26 30 -10 0 17 1 17 18 2 26 -23 30 -21 24 11
-5 26 -4 26 15 10 11 -10 23 -18 28 -18 11 0 0 141 -15 171 -29 63 -121 83
-336 76 -167 -5 -258 -23 -339 -65 -58 -29 -109 -88 -131 -149 l-13 -38 -1 57
c0 83 -26 109 -143 147 -51 16 -121 34 -155 41 -65 11 -259 11 -367 -2z m202
-161 c121 -113 152 -137 173 -137 14 0 20 7 20 23 0 35 8 37 46 15 26 -15 38
-18 46 -10 9 9 15 9 25 0 21 -17 103 -21 103 -4 0 8 9 13 24 12 21 -1 24 -7
29 -58 11 -122 121 -257 294 -358 153 -90 213 -151 213 -216 0 -16 -7 -39 -15
-50 -15 -18 -20 -14 -123 94 -59 61 -110 112 -114 112 -5 0 -8 -14 -8 -32 0
-30 0 -31 -20 -13 -19 17 -20 17 -20 0 0 -17 -3 -16 -25 5 l-25 23 0 -33 0
-34 -35 34 -35 34 0 -59 0 -59 -42 40 c-48 45 -86 54 -124 29 -14 -9 -31 -15
-37 -12 -7 2 -21 1 -32 -3 -11 -4 -28 -3 -38 2 -12 6 -29 3 -54 -9 -21 -10
-47 -16 -59 -15 -22 3 -81 -38 -168 -115 l-48 -43 -27 20 c-194 137 -259 491
-138 744 35 72 96 146 122 146 7 0 49 -33 92 -73z m799 -915 c-13 -3 -76 24
-76 32 0 2 21 -4 46 -13 25 -9 38 -17 30 -19z"/>
<path d="M4538 2100 c-128 -32 -202 -79 -240 -154 -29 -56 -36 -183 -14 -259
20 -69 72 -118 265 -250 124 -84 241 -180 241 -196 0 -4 -14 -28 -30 -55 l-30
-47 -46 37 c-25 21 -73 71 -105 110 -63 77 -93 96 -112 71 -14 -17 -88 -29
-108 -16 -20 12 -39 -9 -39 -43 l0 -29 -27 26 c-50 45 -63 31 -63 -68 0 -102
40 -147 168 -187 94 -29 206 -36 294 -17 40 8 103 20 140 25 86 13 140 39 200
97 66 63 81 96 86 191 8 156 -43 233 -229 346 -289 175 -277 161 -235 263 l23
58 74 -68 c41 -37 81 -76 91 -86 24 -28 28 -24 28 33 l0 52 38 -37 c42 -41 52
-45 52 -19 1 14 4 13 22 -8 14 -17 22 -21 25 -12 4 10 9 9 24 -4 18 -16 19
-16 19 11 0 23 2 26 15 15 13 -11 15 -2 15 68 0 101 -16 124 -105 148 -95 26
-339 28 -437 4z m65 -1057 c-7 -2 -19 -2 -25 0 -7 3 -2 5 12 5 14 0 19 -2 13
-5z"/>
<path d="M7499 2111 c-31 -4 -84 -16 -118 -27 -52 -15 -61 -21 -59 -39 2 -11
13 -24 25 -30 41 -17 48 -82 48 -415 0 -326 -12 -460 -45 -517 -17 -29 -17
-33 -3 -45 21 -17 254 -18 275 0 8 6 39 15 69 20 34 5 53 13 51 20 -1 7 4 15
12 18 12 4 10 12 -9 39 -30 45 -38 131 -26 261 13 129 15 134 57 134 37 0 59
-18 98 -80 25 -40 47 -45 60 -14 9 19 12 20 49 7 45 -16 57 -10 81 41 29 60
16 207 -20 236 -12 11 -19 11 -38 0 -13 -7 -29 -9 -35 -6 -6 4 -18 -2 -28 -13
-11 -14 -24 -19 -40 -15 -18 5 -26 0 -40 -25 -23 -40 -47 -39 -88 2 -44 44
-59 101 -52 207 6 96 24 158 49 174 24 15 111 -15 187 -64 75 -49 85 -50 76
-9 l-7 31 44 -26 c52 -30 66 -32 83 -9 17 23 -1 90 -29 108 -11 8 -50 19 -86
25 -83 13 -468 21 -541 11z"/>
<path d="M8619 2109 c-53 -12 -148 -56 -187 -86 -42 -32 -79 -109 -88 -184 -7
-59 9 -155 32 -202 18 -33 123 -118 282 -227 111 -76 160 -115 190 -152 11
-14 9 -24 -12 -65 -37 -71 -62 -96 -85 -88 -41 13 -140 95 -201 167 -35 40
-73 80 -86 88 -21 13 -25 13 -37 -4 -7 -9 -19 -16 -27 -14 -7 2 -18 -7 -25
-19 -9 -17 -15 -19 -29 -11 -27 15 -39 -4 -43 -69 -8 -122 58 -183 236 -219
109 -21 182 -15 306 26 121 40 180 91 215 185 28 77 25 198 -8 261 -31 60
-119 136 -246 211 -115 68 -226 141 -226 148 0 2 12 35 26 73 24 65 54 112 72
112 20 0 109 -67 182 -136 l80 -77 0 37 c0 20 3 36 7 36 4 0 22 -15 40 -32 43
-42 53 -29 53 69 0 89 -10 118 -50 138 -72 37 -278 56 -371 34z"/>
<path d="M9473 2090 c-124 -54 -183 -144 -183 -280 0 -119 47 -218 138 -292
24 -20 86 -60 136 -90 164 -95 224 -181 194 -273 -13 -40 -13 -40 -68 -43 -47
-2 -64 3 -115 31 -61 35 -92 69 -148 167 -38 66 -59 73 -96 31 -17 -19 -34
-29 -43 -26 -28 11 -40 -22 -39 -107 1 -79 2 -84 30 -110 50 -45 279 -104 366
-94 57 6 162 48 221 88 153 102 164 349 22 490 -24 24 -92 72 -153 107 -230
133 -261 184 -185 304 47 74 66 68 209 -65 46 -43 90 -78 97 -78 7 0 17 7 22
16 8 14 12 14 30 3 35 -22 47 1 47 86 0 66 -3 77 -25 99 -36 36 -127 57 -265
62 -117 5 -122 4 -192 -26z"/>
<path d="M10640 2104 c-30 -7 -98 -35 -150 -61 -206 -102 -300 -256 -300 -488
0 -223 101 -419 256 -498 267 -135 702 1 833 260 112 224 71 471 -109 654 -81
82 -127 111 -217 134 -72 19 -239 19 -313 -1z m242 -105 c113 -73 174 -202
185 -394 9 -160 -31 -327 -99 -409 -68 -83 -201 -111 -296 -62 -83 43 -142
119 -183 236 -30 86 -32 280 -5 380 31 115 98 218 172 267 60 39 148 32 226
-18z"/>
<path d="M12549 2097 c-151 -51 -306 -181 -349 -292 -35 -90 -40 -278 -11
-399 28 -115 79 -212 147 -276 75 -71 154 -105 299 -130 66 -11 122 -20 125
-20 3 1 -11 9 -30 20 l-35 19 55 -5 55 -6 -34 22 c-18 12 -67 38 -108 58 -88
43 -132 88 -179 187 -49 104 -65 175 -65 295 0 171 48 305 144 404 60 61 107
80 181 74 78 -6 137 -41 248 -144 55 -52 108 -94 118 -94 9 0 30 12 45 26 25
23 27 30 23 86 -4 54 -8 65 -37 88 -18 15 -70 39 -119 54 -201 61 -358 72
-473 33z"/>
<path d="M13766 2105 c-99 -25 -201 -80 -265 -143 -213 -208 -198 -574 33
-807 75 -76 138 -112 236 -135 74 -18 218 -16 310 4 96 20 226 83 284 136 86
79 128 216 127 415 0 191 -34 289 -136 391 -105 106 -204 143 -400 149 -95 4
-146 1 -189 -10z m274 -80 c63 -32 118 -129 146 -254 20 -89 15 -309 -9 -382
-39 -120 -118 -226 -192 -260 -23 -11 -63 -19 -95 -19 -53 0 -55 1 -116 63
-73 75 -100 139 -116 270 -25 208 44 504 132 569 52 38 188 45 250 13z"/>
<path d="M13009 1270 c-65 -43 -207 -179 -188 -180 12 0 15 -8 13 -31 -4 -31
-3 -31 29 -26 17 4 81 15 142 26 102 18 112 22 142 55 24 26 33 45 33 70 0 50
-16 86 -39 86 -10 0 -24 7 -31 15 -19 23 -52 18 -101 -15z"/>
<path d="M8136 1195 c-8 -8 -21 -15 -29 -15 -8 0 -20 -6 -27 -14 -6 -8 -24
-16 -38 -18 -15 -2 -31 -12 -36 -23 -5 -12 -47 -37 -107 -65 -55 -24 -98 -49
-96 -55 5 -15 71 -18 125 -6 107 25 186 50 211 69 35 26 71 80 71 107 0 35
-46 47 -74 20z"/>
<path d="M17636 1194 c-9 -8 -16 -22 -16 -29 0 -18 -43 -47 -103 -69 -50 -19
-57 -37 -18 -46 12 -3 22 -9 21 -15 0 -5 21 -11 47 -13 30 -2 51 -9 56 -18 7
-12 20 -14 60 -9 108 15 169 59 183 131 8 46 -1 52 -83 52 -45 0 -70 5 -82 16
-22 20 -45 20 -65 0z"/>
</g>
</svg>
